<?xml version="1.0"?>
<svg xmlns="http://www.w3.org/2000/svg" xmlns:xlink="http://www.w3.org/1999/xlink" id="Layer_1" data-name="Layer 1" viewBox="0 0 512 512" width="512" height="512"><defs><linearGradient id="linear-gradient" x1="256" y1="483.758" x2="256" y2="45.734" gradientUnits="userSpaceOnUse"><stop offset="0.322" stop-color="#01805c"/><stop offset="0.466" stop-color="#01805c"/><stop offset="0.752" stop-color="#01996D"/><stop offset="0.898" stop-color="#01996D"/></linearGradient></defs><title>Map</title><path d="M371.52,99.342a163.117,163.117,0,0,0-231.04,0A173.612,173.612,0,0,0,90.35,210.367a163.611,163.611,0,0,0,9.883,67.352c7.819,21.43,20.548,41.632,37.834,60.044L251.626,458.72a6,6,0,0,0,8.748,0L373.933,337.763c17.286-18.412,30.015-38.614,37.834-60.044a163.611,163.611,0,0,0,9.883-67.352A173.612,173.612,0,0,0,371.52,99.342Zm28.974,174.263c-7.26,19.9-19.14,38.721-35.31,55.944L256,445.847l-109.184-116.3c-16.17-17.223-28.05-36.046-35.31-55.944a151.681,151.681,0,0,1-9.183-62.438A161.618,161.618,0,0,1,148.98,107.812a151.118,151.118,0,0,1,214.04,0,161.618,161.618,0,0,1,46.657,103.355A151.681,151.681,0,0,1,400.494,273.605Z" style="fill:url(#linear-gradient)"/><path d="M256,133.045c-40.791,0-73.976,34.005-73.976,75.8s33.185,75.8,73.976,75.8,73.976-34,73.976-75.8S296.791,133.045,256,133.045Zm0,139.6c-34.174,0-61.976-28.622-61.976-63.8s27.8-63.8,61.976-63.8,61.976,28.622,61.976,63.8S290.174,272.649,256,272.649Z" style="fill:url(#linear-gradient)"/></svg>
